HIERARCHY
ROOT Hips
{
	OFFSET 0.00000 0.00000 0.00000
	CHANNELS 6 Xposition Yposition Zposition Zrotation Yrotation Xrotation 
	JOINT LHipJoint
	{
		OFFSET 0 0 0
		CHANNELS 3 Zrotation Yrotation Xrotation
		JOINT LeftUpLeg
		{
			OFFSET 1.26600 -1.82114 0.91038
			CHANNELS 3 Zrotation Yrotation Xrotation
			JOINT LeftLeg
			{
				OFFSET 2.50076 -6.87080 0.00000
				CHANNELS 3 Zrotation Yrotation Xrotation
				JOINT LeftFoot
				{
					OFFSET 2.57364 -7.07102 0.00000
					CHANNELS 3 Zrotation Yrotation Xrotation
					JOINT LeftToeBase
					{
						OFFSET 0.13572 -0.37290 1.97004
						CHANNELS 3 Zrotation Yrotation Xrotation
						End Site
						{
							OFFSET 0.00000 -0.00000 1.01383
						}
					}
				}
			}
		}
	}
	JOINT RHipJoint
	{
		OFFSET 0 0 0
		CHANNELS 3 Zrotation Yrotation Xrotation
		JOINT RightUpLeg
		{
			OFFSET -1.20803 -1.82114 0.91038
			CHANNELS 3 Zrotation Yrotation Xrotation
			JOINT RightLeg
			{
				OFFSET -2.54916 -7.00377 0.00000
				CHANNELS 3 Zrotation Yrotation Xrotation
				JOINT RightFoot
				{
					OFFSET -2.56374 -7.04382 0.00000
					CHANNELS 3 Zrotation Yrotation Xrotation
					JOINT RightToeBase
					{
						OFFSET -0.23520 -0.64621 2.09921
						CHANNELS 3 Zrotation Yrotation Xrotation
						End Site
						{
							OFFSET -0.00000 -0.00000 1.10065
						}
					}
				}
			}
		}
	}
	JOINT LowerBack
	{
		OFFSET 0 0 0
		CHANNELS 3 Zrotation Yrotation Xrotation
		JOINT Spine
		{
			OFFSET 0.05492 2.10797 -0.12074
			CHANNELS 3 Zrotation Yrotation Xrotation
			JOINT Spine1
			{
				OFFSET 0.04577 2.11592 -0.04483
				CHANNELS 3 Zrotation Yrotation Xrotation
				JOINT Neck
				{
					OFFSET 0 0 0
					CHANNELS 3 Zrotation Yrotation Xrotation
					JOINT Neck1
					{
						OFFSET -0.10759 1.80167 0.15770
						CHANNELS 3 Zrotation Yrotation Xrotation
						JOINT Head
						{
							OFFSET 0.09237 1.77509 -0.40848
							CHANNELS 3 Zrotation Yrotation Xrotation
							End Site
							{
								OFFSET 0.03805 1.84093 -0.15754
							}
						}
					}
				}
				JOINT LeftShoulder
				{
					OFFSET 0 0 0
					CHANNELS 3 Zrotation Yrotation Xrotation
					JOINT LeftArm
					{
						OFFSET 3.42372 1.09575 -0.28209
						CHANNELS 3 Zrotation Yrotation Xrotation
						JOINT LeftForeArm
						{
							OFFSET 4.95681 -0.00000 0.00000
							CHANNELS 3 Zrotation Yrotation Xrotation
							JOINT LeftHand
							{
								OFFSET 3.40915 -0.00000 0.00000
								CHANNELS 3 Zrotation Yrotation Xrotation
								JOINT LeftFingerBase
								{
									OFFSET 0 0 0
									CHANNELS 3 Zrotation Yrotation Xrotation
									JOINT LeftHandIndex1
									{
										OFFSET 0.61640 -0.00000 0.00000
										CHANNELS 3 Zrotation Yrotation Xrotation
										End Site
										{
											OFFSET 0.49696 -0.00000 0.00000
										}
									}
								}
								JOINT LThumb
								{
									OFFSET 0 0 0
									CHANNELS 3 Zrotation Yrotation Xrotation
									End Site
									{
										OFFSET 0.50455 -0.00000 0.50455
									}
								}
							}
						}
					}
				}
				JOINT RightShoulder
				{
					OFFSET 0 0 0
					CHANNELS 3 Zrotation Yrotation Xrotation
					JOINT RightArm
					{
						OFFSET -3.24731 1.15872 -0.32221
						CHANNELS 3 Zrotation Yrotation Xrotation
						JOINT RightForeArm
						{
							OFFSET -5.35200 -0.00000 0.00000
							CHANNELS 3 Zrotation Yrotation Xrotation
							JOINT RightHand
							{
								OFFSET -3.43721 -0.00000 -0.00000
								CHANNELS 3 Zrotation Yrotation Xrotation
								JOINT RightFingerBase
								{
									OFFSET 0 0 0
									CHANNELS 3 Zrotation Yrotation Xrotation
									JOINT RightHandIndex1
									{
										OFFSET -0.72009 -0.00000 0.00000
										CHANNELS 3 Zrotation Yrotation Xrotation
										End Site
										{
											OFFSET -0.58056 -0.00000 0.00000
										}
									}
								}
								JOINT RThumb
								{
									OFFSET 0 0 0
									CHANNELS 3 Zrotation Yrotation Xrotation
									End Site
									{
										OFFSET -0.58942 -0.00000 0.58942
									}
								}
							}
						}
					}
				}
			}
		}
	}
}
MOTION
Frames: 11
Frame Time: 0.031746
0.00 0.00 0.00 0 0 0 0 0 0 -21 0 0 0 0 0 0 0 0 0 0 0 0 0 0 21 0 0 0 0 0 0 0 0 0 0 0 0 0 0 0 0 0 0 0 0 0 0 -16 0 0 21 0 0 11 0 0 0 -8 0 0 0 0 0 0 0 0 0 0 0 0 0 0 0 0 0 0 0 0 8 0 0 0 0 0 0 0 0 0 0 0 0 0 0 0 0 0
0.00 0.00 0.00 -98.8857 85.2043 -96.6994 0.0000 0.0000 0.0000 -15.1667 -1.1874 -4.4608 1.3723 7.4136 20.9467 0.3639 -11.3288 -12.4881 0.5669 4.8220 13.4016 0.0000 0.0000 0.0000 26.4473 6.5751 -6.1624 -3.3233 -11.2009 32.9604 -2.2224 10.9719 -26.8272 -6.3246 -14.7357 46.2711 2.1615 1.2540 0.2760 2.5641 1.7658 -1.2197 1.3905 0.8908 -1.4216 -8.7671 -2.3278 -18.5207 5.7552 -1.9285 20.5070 3.2184 -0.8737 9.7019 0.0000 0.0000 0.0000 -90.4306 4.7142 25.3496 14.2200 -23.0483 -2.9137 -0.0000 -0.0000 4.2485 13.9458 19.2596 4.6826 -7.1250 0.0000 -0.0000 -14.0491 49.2574 -1.5017 0.0000 0.0000 0.0000 87.5196 -2.6681 20.1535 -14.5264 23.4823 -3.0347 0.0000 -0.0000 -8.1567 -17.2281 14.5377 -4.4508 7.1250 -0.0000 -0.0000 6.9814 -14.8681 4.9941
0.00 0.00 0.00 -99.3680 82.1571 -99.4601 0.0000 0.0000 0.0000 -10.2723 -3.2130 -14.2284 5.6342 14.0642 43.4952 0.1429 -11.7165 -10.1161 0.0020 -0.2863 -0.7865 0.0000 0.0000 0.0000 31.0447 -4.1527 -5.5911 -2.0338 -8.9362 25.5959 -1.4328 4.5428 -21.6005 -0.9083 -6.0733 16.9972 4.7761 1.0682 3.2324 3.3036 1.7177 0.3395 0.6443 0.8689 -1.4283 -8.3079 -2.7138 -18.4309 5.1249 -2.4270 23.4583 2.9084 -1.1372 10.7804 0.0000 -0.0000 0.0000 -89.2669 2.0302 26.4935 14.1136 -22.8968 -2.8721 -0.0000 -0.0000 3.1711 14.8664 19.3687 5.0311 -7.1250 0.0000 -0.0000 -13.2179 49.5039 -1.4912 0.0000 -0.0000 0.0000 88.6576 -1.9419 24.1151 -15.0676 24.2402 -3.2537 0.0000 -0.0000 -9.3258 -17.4098 14.2713 -4.4201 7.1250 -0.0000 -0.0000 6.8521 -15.1265 4.8621
0.00 0.00 0.00 -97.2799 79.4458 -99.2187 0.0000 0.0000 0.0000 -4.0263 -5.9302 -24.4349 10.2755 17.5619 60.4051 -0.4673 -12.0144 4.0324 0.0144 -0.7741 -2.1274 0.0000 0.0000 0.0000 34.4429 -6.2189 -1.3784 -1.3656 -7.3961 20.8942 -1.1775 3.4886 -19.6508 -0.9960 -6.3513 17.8072 7.4301 0.9539 5.4993 4.2000 1.8948 1.6844 0.0551 1.0044 -1.2520 -7.8981 -2.8952 -18.6761 4.2858 -2.4921 26.2144 2.5790 -1.2211 11.8644 -0.0000 -0.0000 0.0000 -89.4881 1.1936 25.9342 15.0461 -24.2104 -3.2448 -0.0000 -0.0000 2.7603 14.5031 18.7283 4.7478 -7.1250 0.0000 -0.0000 -13.3307 48.8140 -1.2747 -0.0000 -0.0000 0.0000 88.1380 -1.3470 24.2797 -14.9630 24.0946 -3.2108 0.0000 -0.0000 -8.3397 -16.4269 15.5884 -4.5299 7.1250 -0.0000 -0.0000 7.5454 -13.8629 5.5672
0.00 0.00 0.00 -68.5311 79.3738 -69.6384 0.0000 0.0000 0.0000 -3.6150 -6.8761 -30.3645 3.0620 10.7947 31.5905 0.2881 -5.2125 -9.6731 0.0036 -0.3877 -1.0652 0.0000 0.0000 0.0000 32.6932 -7.5114 7.8790 -0.3862 -3.9910 11.0513 -0.8872 5.2524 -16.8111 -0.4883 -4.4808 12.4334 8.4427 1.9871 3.5778 3.7947 3.0286 2.2074 -0.8847 1.6322 0.5050 -8.1771 -2.4241 -15.4150 2.9995 -0.8468 35.0724 2.6519 -0.6250 14.8241 -0.0000 -0.0000 0.0000 -92.4723 4.6351 16.4534 11.4845 -19.0270 -1.9309 -0.0000 -0.0000 6.9738 14.0535 19.5800 4.7952 -7.1250 0.0000 -0.0000 -14.0677 49.5896 -1.6206 -0.0000 -0.0000 0.0000 85.3819 -3.0900 17.2278 -12.7884 20.9764 -2.3770 0.0000 -0.0000 -7.3829 -17.9843 13.6916 -4.3937 7.1250 -0.0000 -0.0000 6.4473 -15.6743 4.4946
0.00 0.00 0.00 -48.8910 79.7057 -48.3144 0.0000 0.0000 0.0000 -5.9378 -11.6685 -25.9214 1.6031 7.9853 22.6694 -0.1355 -6.9457 5.1149 0.0025 0.3255 0.8943 0.0000 0.0000 0.0000 26.6194 -8.0557 16.6544 -0.5489 -4.7462 13.1860 -0.9166 1.8990 -17.5524 -2.7228 10.2322 -29.7320 6.3400 2.0087 2.5482 3.3837 2.8827 1.8433 -0.1169 1.5200 0.6063 -8.2016 -2.1685 -15.6440 2.6825 0.0472 38.4036 2.8071 -0.2987 16.4802 -0.0000 0.0000 0.0000 -92.7700 5.0772 13.8171 10.8815 -18.1064 -1.7389 -0.0000 -0.0000 7.6423 13.7516 19.7341 4.7238 -7.1250 0.0000 -0.0000 -14.4125 49.6955 -1.6999 -0.0000 0.0000 0.0000 84.5718 -4.3872 9.6356 -12.8581 21.0790 -2.4020 0.0000 -0.0000 -4.7235 -17.1775 13.2750 -4.0602 7.1250 -0.0000 -0.0000 6.9944 -16.1759 4.8053
0.00 0.00 0.00 -41.1859 80.2297 -42.5930 0.0000 0.0000 0.0000 -10.3374 -6.0415 -20.7975 1.3866 7.4506 21.0574 -0.3254 -10.4560 6.9282 0.1995 2.8764 7.9347 0.0000 0.0000 0.0000 24.2918 -1.9968 13.4827 -2.3303 -9.5226 27.4442 -0.1924 2.6230 -7.7938 -0.5279 -4.6560 12.9301 5.4995 2.0368 4.1194 3.1993 2.9908 2.7405 0.1136 1.5843 0.6233 -8.1513 -2.5123 -15.5894 2.5755 -0.3185 39.4542 2.7299 -0.4543 17.0677 0.0000 0.0000 0.0000 -91.6744 3.0155 17.4907 12.1319 -20.0021 -2.1472 -0.0000 -0.0000 6.5442 12.5908 18.6597 4.0876 -7.1250 0.0000 -0.0000 -15.0968 48.4700 -1.3200 0.0000 0.0000 0.0000 85.3807 -6.4862 10.0654 -17.4827 27.4897 -4.3078 0.0000 -0.0000 -11.5452 -16.5245 12.0450 -3.5427 7.1250 -0.0000 -0.0000 7.4374 -17.4961 4.8990
0.00 0.00 0.00 -21.1481 80.5295 -23.0451 0.0000 0.0000 0.0000 -15.1362 -3.0857 -16.9580 0.9738 6.2822 17.6053 -0.3639 -10.9089 6.6818 0.3568 3.8374 10.6195 0.0000 0.0000 0.0000 19.3588 -2.3031 3.8600 -5.7010 -14.1322 43.7697 -0.0149 -0.9923 2.1731 -0.0118 -0.7002 1.9244 2.7640 2.1983 4.7759 2.2830 3.1108 3.1113 0.6667 1.6085 0.5432 -7.4370 -2.3173 -15.3734 1.9309 0.0315 39.8554 2.3874 -0.2940 17.2023 0.0000 -0.0000 0.0000 -89.6361 2.3310 22.8035 14.8147 -23.8874 -3.1505 -0.0000 -0.0000 2.9358 12.6354 19.0169 4.1778 -7.1250 0.0000 -0.0000 -15.1892 48.8257 -1.4641 0.0000 -0.0000 0.0000 85.2642 -6.9414 13.3788 -20.6259 31.3891 -5.8539 0.0000 -0.0000 -12.1987 -17.3407 12.3313 -3.8151 7.1250 -0.0000 -0.0000 6.8712 -17.1383 4.5745
0.00 0.00 0.00 -6.0320 80.9329 -8.1312 0.0000 0.0000 0.0000 -19.3915 -0.8696 -12.7116 0.5797 4.8754 13.5536 -0.3308 -10.7516 7.7991 0.8041 5.7231 15.9831 0.0000 0.0000 0.0000 16.6128 -3.6753 -10.5588 -10.3466 -17.6002 60.6405 0.2331 -9.9022 -9.0088 -0.2007 -2.8850 7.9587 -0.2594 1.5356 6.0210 1.5197 2.1135 3.4046 1.5819 1.0735 0.0632 -6.6525 -1.9493 -14.7466 1.0737 0.7360 40.5346 2.0031 -0.0063 17.3794 -0.0000 -0.0000 0.0000 -85.6563 -0.4801 26.2989 17.7487 -27.8342 -4.4313 -0.0000 0.0000 -0.5789 15.0099 18.5972 4.8876 -7.1250 0.0000 -0.0000 -12.8076 48.7578 -1.2052 -0.0000 -0.0000 0.0000 85.0908 -5.3507 16.3405 -24.5896 35.7815 -8.0487 0.0000 -0.0000 -9.5348 -14.8969 14.8005 -3.8876 7.1250 -0.0000 -0.0000 8.5666 -14.8061 6.1634
0.00 0.00 0.00 -2.2329 83.0569 -3.6315 0.0000 0.0000 0.0000 -20.8494 -0.9869 -16.1859 1.6749 8.1533 23.1808 -0.8689 -16.5527 2.7362 1.1514 6.8130 19.1626 0.0000 0.0000 0.0000 19.1441 -6.8198 -23.5819 -6.6574 -15.0364 47.5662 -0.7073 5.4706 -14.9819 -0.2022 2.8958 -7.9887 -2.5362 0.2185 6.8408 1.6638 0.2402 3.5552 3.1234 0.1115 -0.1817 -6.3961 -2.1286 -14.0769 0.8719 0.4875 41.2090 1.8321 -0.0990 17.6059 -0.0000 -0.0000 0.0000 -82.0206 -6.5646 23.7369 18.7846 -29.1501 -4.9255 -0.0000 0.0000 -3.3717 16.8245 19.2353 5.6890 -7.1250 0.0000 -0.0000 -11.3045 49.6702 -1.3166 -0.0000 -0.0000 0.0000 84.8029 -4.6248 17.9855 -29.2524 40.2439 -10.9234 0.0000 -0.0000 -13.4920 -17.8411 14.2655 -4.5347 7.1250 -0.0000 -0.0000 6.5580 -15.0924 4.6553
0.00 0.00 0.00 -10.4477 41.8808 -11.4683 0.0000 0.0000 0.0000 -6.6649 -8.7578 -14.8430 6.9478 15.2878 48.6765 -0.3451 -13.1435 -3.8460 0.0141 -0.7654 -2.1035 0.0000 0.0000 0.0000 29.2254 1.9793 -4.4890 -1.8334 -8.5101 24.2744 0.7625 20.3168 -6.9311 -1.6356 -8.0618 22.9019 2.8154 0.0935 6.5952 3.5586 0.3635 3.8710 2.0624 0.2203 0.2893 -10.6601 -4.8130 -11.5271 6.9304 -6.1583 39.2601 4.0177 -2.9753 16.7238 -0.0000 0.0000 0.0000 -94.4932 2.4599 16.8833 10.3159 -17.2321 -1.5672 -0.0000 -0.0000 9.3935 11.5785 21.9895 4.3868 -7.1250 0.0000 -0.0000 -17.4406 51.5424 -2.8838 -0.0000 0.0000 0.0000 84.0739 -2.7189 10.8447 -20.6724 31.4440 -5.8781 0.0000 -0.0000 -14.6191 -22.7755 15.7890 -6.5173 7.1250 -0.0000 -0.0000 3.2877 -12.9511 2.4714
